PathFileType  4	(X/Y/Z) C:\Users\antoi\Documents\MyRepositories\mobilecap\ResultsAnalysis
DataRate	CameraRate	NumFrames	NumMarkers	Units	OrigDataRate	OrigDataStartFrame	OrigNumFrames
100.0	100.0	5	51	mm	100.0	131	261
Frame#	Time	r_knee			r_shank_antsup			r_ankle			r_calc			r_5meta			r_toe			L_knee			L_shank_antsup			L_ankle			L_calc			L_5meta			L_toe			r_sh2			r_sh3			r_sh4			L_sh2			L_sh3			r_thigh1			r_thigh2			r_thigh3			r_thigh4			r_thigh5			L_thigh1			L_thigh2			L_thigh3			L_thigh4			r.ASIS			r.PSIS			L.ASIS			L.PSIS			C7			R_Shoulder			L_Shoulder			R_Sternum			L_Sternum			R_humerus			R_elbow_med			R_elbow_lat			R_forearm			R_wrist_radius			R_wrist_ulna			L_humerus			L_elbow_med			L_elbow_lat			L_forearm			L_wrist_radius			L_wrist_ulna			R_HJC			L_HJC			R_HJC_reg			L_HJC_reg			
		X1	Y1	Z1	X2	Y2	Z2	X3	Y3	Z3	X4	Y4	Z4	X5	Y5	Z5	X6	Y6	Z6	X7	Y7	Z7	X8	Y8	Z8	X9	Y9	Z9	X10	Y10	Z10	X11	Y11	Z11	X12	Y12	Z12	X13	Y13	Z13	X14	Y14	Z14	X15	Y15	Z15	X16	Y16	Z16	X17	Y17	Z17	X18	Y18	Z18	X19	Y19	Z19	X20	Y20	Z20	X21	Y21	Z21	X22	Y22	Z22	X23	Y23	Z23	X24	Y24	Z24	X25	Y25	Z25	X26	Y26	Z26	X27	Y27	Z27	X28	Y28	Z28	X29	Y29	Z29	X30	Y30	Z30	X31	Y31	Z31	X32	Y32	Z32	X33	Y33	Z33	X34	Y34	Z34	X35	Y35	Z35	X36	Y36	Z36	X37	Y37	Z37	X38	Y38	Z38	X39	Y39	Z39	X40	Y40	Z40	X41	Y41	Z41	X42	Y42	Z42	X43	Y43	Z43	X44	Y44	Z44	X45	Y45	Z45	X46	Y46	Z46	X47	Y47	Z47	X48	Y48	Z48	X49	Y49	Z49	X50	Y50	Z50	X51	Y51	Z51	

131	1.30000000	-362.35904	686.91822	-386.56588	-307.08175	602.99067	-378.66704	-305.17218	254.68459	-399.16068	-378.36773	243.12455	-468.90621	-220.83382	125.98039	-378.01921	-144.92983	158.19961	-410.14317	-357.68757	714.32251	-796.68361	-350.05795	629.35000	-825.19805	-313.26115	286.13586	-799.54374	-382.96201	255.73353	-728.86048	-217.49009	172.84836	-831.33532	-144.76181	203.33219	-788.02791	-311.25660	492.24988	-352.73658	-380.20166	608.45196	-357.57763	-393.57866	493.50275	-355.32235	-434.25416	620.39833	-795.26218	-408.89425	500.84255	-801.21469	-383.23034	1013.03890	-377.38245	-347.34017	909.51147	-379.07499	-441.36627	865.83099	-376.47771	-486.05998	970.95800	-388.65084	-390.32063	868.20357	-351.93056	-363.66524	1012.97736	-778.99165	-315.15401	881.04129	-783.04899	-465.90824	975.19387	-795.42111	-422.50095	845.08137	-802.32426	-393.63576	1210.67153	-437.70444	-570.73968	1231.86157	-501.64475	-396.22762	1226.76865	-680.11215	-577.10890	1242.52122	-611.88467	-362.08293	1769.54319	-537.08127	-341.43520	1732.58542	-391.81225	-350.65406	1734.92910	-681.49206	-281.34210	1642.40153	-502.64084	-280.16201	1640.29864	-567.54439	-436.45832	1685.50661	-281.06088	-640.78434	1593.80764	-255.35871	-626.67542	1677.28700	-216.56885	-476.58997	1629.25148	-162.83689	-385.38944	1612.43179	-169.12129	-407.40657	1593.61801	-133.57061	-422.41986	1695.17866	-788.69697	-547.37443	1494.98180	-875.00269	-544.77955	1570.44851	-924.59289	-466.71749	1591.58119	-928.40585	-307.38262	1606.92741	-872.97335	-298.52523	1581.18235	-903.07045	-474.87761	1097.45228	-462.67622	-481.38336	1118.47990	-668.46335	-449.90960	1131.43846	-476.14084	-459.11579	1146.84655	-635.48533	
132	1.31000000	-343.28482	664.98793	-384.95247	-287.15051	580.63257	-377.54955	-290.24812	232.53004	-399.69072	-363.07249	221.72351	-469.75858	-207.37331	102.43670	-378.68984	-130.98031	133.77559	-410.23564	-336.60767	694.86584	-799.05958	-329.08135	609.87985	-827.73162	-294.93966	264.95337	-801.57624	-365.24916	236.17281	-730.93191	-198.07633	150.49135	-828.40387	-125.96895	183.71855	-785.62899	-292.48847	469.97293	-351.99018	-360.12465	586.95262	-356.04529	-374.62945	472.02251	-354.65525	-413.10228	601.71126	-796.98724	-388.75490	481.98724	-802.66315	-370.02061	990.11916	-375.91364	-332.58259	887.19822	-377.03800	-425.73752	841.94279	-375.19621	-472.10501	946.37104	-388.24483	-375.06008	845.38883	-349.87439	-350.59013	993.01854	-779.73270	-297.94537	862.78372	-785.71214	-451.69147	952.38456	-796.23944	-404.35311	823.59629	-803.99769	-382.30846	1186.76377	-437.74438	-559.24962	1207.42040	-500.37667	-386.04457	1203.76186	-679.46934	-566.56030	1218.37022	-610.50470	-349.04867	1744.66409	-536.59076	-329.22446	1706.18685	-390.09330	-337.84940	1708.69527	-681.65968	-268.69143	1617.65003	-501.70418	-267.46090	1616.07980	-567.36963	-430.01594	1659.60576	-284.13504	-638.97358	1573.60441	-272.86158	-623.69025	1654.92944	-229.81656	-477.33971	1599.67922	-174.74038	-386.54648	1579.41506	-179.56149	-410.14891	1560.30932	-145.06242	-414.67960	1671.70741	-785.72695	-554.03512	1477.42260	-862.98892	-549.83524	1551.98103	-914.20178	-471.28589	1570.10729	-921.24327	-309.54102	1576.99384	-870.43615	-302.75038	1550.74279	-900.51352	-462.91984	1073.25830	-462.41448	-470.59075	1095.03893	-668.08239	-438.06343	1107.72890	-475.83510	-448.60643	1123.52006	-634.65484	
133	1.32000000	-320.62509	643.55957	-383.71769	-266.10187	558.01665	-376.46639	-276.57052	210.01578	-399.72876	-349.04249	201.45530	-470.10084	-196.84202	77.16751	-380.07740	-119.48352	107.01419	-411.03799	-313.74219	675.64089	-802.01190	-306.25100	590.39354	-830.26971	-278.18061	243.95890	-802.81804	-349.34504	215.92861	-732.52257	-179.73302	129.44133	-825.15440	-108.68013	165.25541	-782.46651	-273.29379	447.47759	-351.45152	-338.71281	565.73733	-354.50429	-355.24397	450.97475	-353.57147	-390.32231	583.93626	-799.69669	-368.10724	464.00573	-804.93822	-356.78304	967.40142	-374.18421	-316.91585	865.75615	-374.57566	-408.20126	818.04723	-373.66125	-457.43030	920.92128	-387.36725	-358.10367	822.68941	-347.77185	-337.19791	972.60927	-780.18139	-279.88365	844.54574	-788.57195	-436.94243	928.66202	-797.00352	-385.11135	801.63496	-805.52999	-371.59678	1162.21137	-437.80876	-548.24247	1182.00126	-499.03551	-376.57424	1179.92987	-678.88132	-556.52886	1193.28809	-609.18347	-335.86167	1718.46651	-536.60207	-317.07924	1677.84775	-388.13481	-324.70255	1680.59131	-682.93911	-255.75040	1591.60029	-501.07615	-254.51047	1590.41491	-567.23825	-423.67837	1630.84423	-287.58889	-635.22243	1548.71565	-291.48385	-620.19791	1627.65936	-243.69787	-477.90149	1566.24378	-186.81614	-387.46543	1543.10449	-189.51427	-412.75730	1523.42632	-156.62856	-407.02638	1645.28963	-782.57789	-559.39198	1457.19497	-848.44014	-554.35283	1530.14780	-901.94177	-475.88035	1545.20622	-912.58103	-311.86587	1543.71654	-867.34726	-307.31778	1516.66765	-897.01411	-451.36253	1048.28653	-462.11403	-460.29585	1070.70260	-667.66323	-426.66928	1083.13706	-475.61663	-438.57711	1099.35660	-633.91164	
134	1.33000000	-296.45865	622.42354	-382.06011	-244.17262	534.86189	-374.88401	-265.07971	188.02305	-400.17130	-338.73904	183.68401	-470.42891	-189.84800	54.34627	-381.37812	-111.21793	82.31911	-413.44057	-288.92356	656.43923	-805.14257	-281.37580	571.07193	-833.26900	-262.68249	223.75875	-802.85527	-335.23252	195.83369	-733.49353	-162.94140	109.62796	-821.45370	-93.08224	147.06605	-778.36108	-253.78209	424.28057	-350.73379	-316.46945	544.04885	-352.65399	-335.72940	429.69236	-352.18818	-365.87063	567.21624	-803.45943	-346.90821	446.78181	-807.77564	-343.49395	944.83653	-372.44260	-299.79370	845.14270	-371.89404	-388.64196	793.61336	-372.58384	-442.03587	894.36011	-385.55672	-339.27035	800.08865	-346.32547	-323.09368	951.82971	-780.84453	-260.97436	826.30026	-791.31267	-421.38711	904.12882	-797.80424	-364.65190	779.34168	-807.41039	-361.35367	1136.92667	-437.79849	-537.92175	1155.30814	-497.81313	-367.78715	1155.04695	-678.19645	-546.82234	1166.94211	-607.94887	-322.65565	1690.82897	-536.79407	-305.16957	1647.77988	-386.23060	-311.30023	1650.91226	-685.10155	-242.56376	1564.19839	-500.77766	-241.40171	1563.08872	-566.88260	-417.08318	1598.98835	-291.39816	-629.27265	1518.93077	-310.44195	-615.88486	1595.25890	-257.59888	-477.72894	1528.66044	-198.58036	-387.60719	1503.14150	-198.62647	-414.67771	1482.74733	-167.62503	-399.21714	1615.88200	-779.42727	-562.51394	1433.57235	-832.57326	-557.48969	1504.43975	-888.31028	-479.82558	1516.09715	-901.86380	-313.64425	1507.10328	-863.70294	-311.72641	1479.03767	-892.59055	-440.09980	1022.36547	-461.69524	-450.26646	1045.18402	-667.14306	-415.85166	1057.47402	-475.55375	-428.60233	1074.14122	-633.33484	
135	1.34000000	-272.61540	600.83493	-378.85121	-220.58242	510.60350	-372.31365	-262.11344	168.49398	-404.00680	-339.27756	164.22832	-473.57382	-187.92045	40.32674	-382.04768	-109.46758	67.52664	-418.27968	-262.21647	637.23178	-808.28775	-254.66498	551.97887	-836.65659	-247.99344	204.68605	-801.90219	-322.26934	177.09455	-734.07145	-147.93970	89.88666	-816.83406	-79.03616	128.07386	-773.20446	-234.49825	400.17513	-349.15014	-292.37583	522.51714	-349.59397	-316.55882	409.11963	-350.28736	-339.91538	551.35010	-808.21602	-325.01358	430.17881	-810.91141	-329.76407	921.97652	-371.38726	-280.57896	824.99408	-370.14026	-367.72689	768.58463	-372.07176	-426.01451	866.90237	-383.31905	-319.06337	777.56828	-345.72274	-308.26654	930.56313	-781.61748	-241.13525	807.95767	-793.62186	-404.85839	878.87504	-798.60696	-342.92721	756.75400	-809.86158	-351.68867	1110.73932	-438.08054	-528.71416	1127.46175	-497.04661	-359.49461	1128.98401	-677.73036	-537.66701	1139.14344	-606.75513	-309.49345	1662.02493	-536.97073	-293.65602	1616.28393	-384.37354	-298.06218	1619.79362	-687.61667	-229.35994	1535.50033	-500.74848	-228.33089	1534.28386	-566.34994	-410.01397	1564.07517	-295.28293	-620.96837	1484.53586	-328.29312	-610.28242	1557.84939	-270.83382	-476.09331	1486.68024	-209.29650	-386.37056	1459.17052	-206.36400	-415.24157	1438.07514	-177.33606	-391.00766	1583.89467	-776.95600	-562.94950	1406.15818	-816.08025	-558.53938	1474.49088	-874.05095	-482.15286	1482.39554	-889.42363	-314.56878	1467.58518	-859.66182	-315.23437	1438.07762	-887.29220	-429.36588	995.41989	-461.37151	-440.68288	1018.36817	-666.74422	-405.98761	1030.96512	-475.82493	-418.82395	1047.71574	-633.12767	
